# xmcd
#
# Track frame offsets:
#	150
#	9736
#	20640
#	29217
#	40580
#	51259
#	63709
#	76073
#	89330
#	100199
#	112980
#	123030
#	133891
#	145558
#	159460
#
# Disc length: 2304
#
# Revision: 2
# Processed by: cddbd v1.5.1PL0 Copyright (c) Steve Scherf et al.
# Submitted via: audiograbber 1.80.04
# Normalized: r0:DSETVAR1,TDELIM( - ),TSWAP
#
DISCID=c308fe0f
DTITLE=Various Artist - Classic Country, 1960 - 1964, CD-1
DYEAR=1900
DGENRE=Country Classic
TTITLE0=George Jones - The Race Is On
TTITLE1=Hank Locklin - Please Help Me, I'm Falling
TTITLE2=Roger Miller - Dang Me
TTITLE3=Floyd Cramer - Last Date
TTITLE4=Ferlin Husky - The Wings Of A Dove
TTITLE5=Patsy Cline - Crazy
TTITLE6=Brenda Lee - I'm Sorry
TTITLE7=Johnny Horton - North To Alaska
TTITLE8=Jim Reeves - He'll Have To Go
TTITLE9=Bill Anderson - Still
TTITLE10=Ned Miller - From A Jack To A King
TTITLE11=Leroy Van Dyke - Walk On By
TTITLE12=Johnny Cash - Ring Of Fire
TTITLE13=Lefty Frizzell - Saginaw, Michigan
TTITLE14=Claude King - Wolverton Mountain
EXTD=
EXTT0=\n
EXTT1=
EXTT2=
EXTT3=
EXTT4=
EXTT5=
EXTT6=
EXTT7=
EXTT8=
EXTT9=
EXTT10=
EXTT11=
EXTT12=
EXTT13=
EXTT14=
PLAYORDER=
